<?xml version="1.0"?><svg xmlns="http://www.w3.org/2000/svg" xmlns:xlink="http://www.w3.org/1999/xlink" style="fill:black" width="750" height="500">
<rect x="1" y="1" width="750" height="500" style="fill:#C6F1C7; stroke:#C6F1C7"/>
<rect x="42" y="42" width="666" height="416" style="fill:white; stroke:black"/>
<line x1="42" y1="479" x2="42" y2="42" style="stroke-width: 0.2; stroke:gray"/>
<text x="45" y="479" font-size="11" font-family="sans-serif">2000-01-01</text>
<line x1="5" y1="388" x2="708" y2="388" style="stroke-width: 0.2; stroke:gray"/>
<text x="5" y="386" font-size="11" font-family="sans-serif">11896</text>
<line x1="5" y1="368" x2="708" y2="368" style="stroke-width: 0.2; stroke:gray"/>
<text x="5" y="366" font-size="11" font-family="sans-serif">12395</text>
<line x1="5" y1="349" x2="708" y2="349" style="stroke-width: 0.2; stroke:gray"/>
<text x="5" y="347" font-size="11" font-family="sans-serif">12894</text>
<line x1="109" y1="479" x2="109" y2="42" style="stroke-width: 0.2; stroke:gray"/>
<text x="112" y="479" font-size="11" font-family="sans-serif">2000-10-27</text>
<line x1="5" y1="325" x2="708" y2="325" style="stroke-width: 0.2; stroke:gray"/>
<text x="5" y="323" font-size="11" font-family="sans-serif">13510</text>
<line x1="5" y1="299" x2="708" y2="299" style="stroke-width: 0.2; stroke:gray"/>
<text x="5" y="297" font-size="11" font-family="sans-serif">14174</text>
<line x1="176" y1="479" x2="176" y2="42" style="stroke-width: 0.2; stroke:gray"/>
<text x="179" y="479" font-size="11" font-family="sans-serif">2001-08-25</text>
<line x1="5" y1="279" x2="708" y2="279" style="stroke-width: 0.2; stroke:gray"/>
<text x="5" y="277" font-size="11" font-family="sans-serif">14679</text>
<line x1="5" y1="263" x2="708" y2="263" style="stroke-width: 0.2; stroke:gray"/>
<text x="5" y="261" font-size="11" font-family="sans-serif">15080</text>
<line x1="243" y1="479" x2="243" y2="42" style="stroke-width: 0.2; stroke:gray"/>
<text x="246" y="479" font-size="11" font-family="sans-serif">2002-06-23</text>
<line x1="5" y1="235" x2="708" y2="235" style="stroke-width: 0.2; stroke:gray"/>
<text x="5" y="233" font-size="11" font-family="sans-serif">15792</text>
<line x1="5" y1="218" x2="708" y2="218" style="stroke-width: 0.2; stroke:gray"/>
<text x="5" y="216" font-size="11" font-family="sans-serif">16245</text>
<line x1="5" y1="186" x2="708" y2="186" style="stroke-width: 0.2; stroke:gray"/>
<text x="5" y="184" font-size="11" font-family="sans-serif">17067</text>
<line x1="310" y1="479" x2="310" y2="42" style="stroke-width: 0.2; stroke:gray"/>
<text x="313" y="479" font-size="11" font-family="sans-serif">2003-04-20</text>
<line x1="5" y1="168" x2="708" y2="168" style="stroke-width: 0.2; stroke:gray"/>
<text x="5" y="166" font-size="11" font-family="sans-serif">17519</text>
<line x1="377" y1="479" x2="377" y2="42" style="stroke-width: 0.2; stroke:gray"/>
<text x="380" y="479" font-size="11" font-family="sans-serif">2004-02-16</text>
<line x1="5" y1="146" x2="708" y2="146" style="stroke-width: 0.2; stroke:gray"/>
<text x="5" y="144" font-size="11" font-family="sans-serif">18080</text>
<line x1="444" y1="479" x2="444" y2="42" style="stroke-width: 0.2; stroke:gray"/>
<text x="447" y="479" font-size="11" font-family="sans-serif">2004-12-14</text>
<line x1="5" y1="126" x2="708" y2="126" style="stroke-width: 0.2; stroke:gray"/>
<text x="5" y="124" font-size="11" font-family="sans-serif">18602</text>
<line x1="5" y1="106" x2="708" y2="106" style="stroke-width: 0.2; stroke:gray"/>
<text x="5" y="104" font-size="11" font-family="sans-serif">19105</text>
<line x1="511" y1="479" x2="511" y2="42" style="stroke-width: 0.2; stroke:gray"/>
<text x="514" y="479" font-size="11" font-family="sans-serif">2005-10-12</text>
<line x1="5" y1="86" x2="708" y2="86" style="stroke-width: 0.2; stroke:gray"/>
<text x="5" y="84" font-size="11" font-family="sans-serif">19626</text>
<line x1="578" y1="479" x2="578" y2="42" style="stroke-width: 0.2; stroke:gray"/>
<text x="581" y="479" font-size="11" font-family="sans-serif">2006-08-10</text>
<line x1="645" y1="479" x2="645" y2="42" style="stroke-width: 0.2; stroke:gray"/>
<text x="648" y="479" font-size="11" font-family="sans-serif">2007-06-07</text>
<line x1="5" y1="64" x2="708" y2="64" style="stroke-width: 0.2; stroke:gray"/>
<text x="5" y="62" font-size="11" font-family="sans-serif">20188</text>
<line x1="5" y1="42" x2="708" y2="42" style="stroke-width: 0.2; stroke:gray"/>
<text x="5" y="40" font-size="11" font-family="sans-serif">20746</text>
<polyline style="stroke:black; stroke-width: 1; fill: none;" points="42 388,
42 388,
42 393,
43 393,
43 398,
43 398,
43 403,
44 406,
44 410,
44 414,
44 416,
44 416,
45 418,
45 422,
45 422,
45 425,
46 426,
46 427,
46 428,
46 430,
46 431,
47 431,
47 434,
47 437,
47 439,
48 443,
48 444,
48 447,
48 448,
48 449,
49 374,
49 374,
49 379,
49 382,
50 385,
50 388,
50 392,
50 396,
50 400,
51 404,
51 407,
51 407,
51 410,
52 410,
52 413,
52 418,
52 419,
52 420,
53 423,
53 426,
53 430,
53 431,
54 434,
54 437,
54 441,
54 443,
54 447,
55 452,
55 454,
55 458,
55 381,
56 384,
56 388,
56 389,
56 391,
56 393,
57 394,
57 396,
57 396,
57 399,
58 401,
58 404,
58 405,
58 407,
58 410,
59 411,
59 412,
59 413,
59 416,
60 417,
60 422,
60 426,
60 428,
60 429,
61 430,
61 434,
61 435,
61 437,
62 440,
62 444,
62 368,
62 373,
62 378,
63 382,
63 385,
63 387,
63 389,
64 392,
64 392,
64 393,
64 397,
64 400,
65 405,
65 406,
65 410,
65 411,
66 411,
66 413,
66 417,
66 417,
66 418,
67 418,
67 423,
67 428,
67 428,
68 432,
68 433,
68 433,
68 433,
68 436,
69 361,
69 366,
69 369,
69 371,
70 375,
70 379,
70 382,
70 383,
70 386,
71 387,
71 387,
71 392,
71 396,
72 399,
72 402,
72 404,
72 406,
72 408,
73 409,
73 410,
73 412,
73 417,
74 421,
74 422,
74 425,
74 429,
74 433,
75 435,
75 438,
75 441,
75 367,
76 368,
76 371,
76 372,
76 376,
76 377,
77 377,
77 380,
77 383,
77 385,
78 388,
78 390,
78 395,
78 399,
78 402,
79 403,
79 407,
79 408,
79 410,
80 411,
80 415,
80 420,
80 422,
80 426,
81 429,
81 430,
81 435,
81 440,
82 440,
82 444,
82 371,
82 374,
82 376,
83 380,
83 381,
83 385,
83 386,
84 390,
84 392,
84 393,
84 397,
84 400,
85 404,
85 406,
85 411,
85 412,
86 414,
86 416,
86 416,
86 416,
86 421,
87 421,
87 422,
87 424,
87 429,
88 434,
88 436,
88 439,
88 442,
88 442,
89 369,
89 372,
89 374,
89 375,
90 377,
90 378,
90 379,
90 382,
90 383,
91 384,
91 386,
91 387,
91 388,
92 388,
92 390,
92 392,
92 394,
92 398,
93 400,
93 401,
93 401,
93 404,
94 405,
94 409,
94 410,
94 411,
94 416,
95 420,
95 422,
95 425,
95 349,
96 350,
96 354,
96 358,
96 363,
96 365,
97 369,
97 369,
97 373,
97 373,
98 375,
98 379,
98 383,
98 385,
98 386,
99 387,
99 390,
99 392,
99 392,
99 395,
100 395,
100 400,
100 403,
100 403,
101 407,
101 408,
101 411,
101 415,
101 418,
102 421,
102 348,
102 353,
102 353,
103 354,
103 358,
103 360,
103 364,
103 366,
104 367,
104 372,
104 376,
104 380,
105 381,
105 384,
105 388,
105 390,
105 390,
106 390,
106 395,
106 399,
106 402,
107 402,
107 403,
107 408,
107 410,
107 413,
108 413,
108 418,
108 421,
108 423,
109 348,
109 349,
109 350,
109 351,
109 354,
110 358,
110 358,
110 359,
110 361,
111 362,
111 366,
111 370,
111 372,
111 374,
112 376,
112 378,
112 381,
112 386,
113 387,
113 391,
113 394,
113 396,
113 401,
114 404,
114 409,
114 411,
114 415,
115 419,
115 420,
115 421,
115 347,
115 349,
116 353,
116 357,
116 361,
116 363,
117 365,
117 367,
117 371,
117 371,
117 375,
118 378,
118 379,
118 380,
118 382,
119 385,
119 390,
119 393,
119 395,
119 399,
120 402,
120 404,
120 404,
120 405,
121 408,
121 411,
121 412,
121 416,
121 420,
122 421,
122 343,
122 346,
122 347,
123 352,
123 353,
123 357,
123 360,
123 365,
124 369,
124 369,
124 374,
124 375,
125 378,
125 381,
125 382,
125 386,
125 390,
126 391,
126 392,
126 393,
126 397,
127 398,
127 399,
127 400,
127 403,
127 408,
128 413,
128 418,
128 421,
128 421,
129 348,
129 352,
129 355,
129 356,
129 358,
130 358,
130 361,
130 362,
130 365,
131 365,
131 365,
131 368,
131 370,
131 374,
132 376,
132 378,
132 381,
132 383,
133 384,
133 385,
133 385,
133 390,
133 390,
134 394,
134 397,
134 397,
134 399,
135 400,
135 402,
135 402,
135 325,
135 326,
136 331,
136 333,
136 337,
136 341,
137 343,
137 345,
137 350,
137 352,
137 354,
138 359,
138 364,
138 365,
138 369,
139 373,
139 377,
139 378,
139 381,
139 382,
140 385,
140 389,
140 393,
140 394,
141 398,
141 401,
141 402,
141 403,
141 406,
142 407,
142 330,
142 331,
142 335,
143 335,
143 336,
143 339,
143 341,
143 342,
144 347,
144 348,
144 351,
144 352,
145 354,
145 357,
145 360,
145 363,
145 364,
146 367,
146 369,
146 371,
146 375,
147 376,
147 376,
147 380,
147 383,
147 387,
148 388,
148 393,
148 397,
148 398,
149 321,
149 325,
149 329,
149 330,
149 333,
150 337,
150 342,
150 343,
150 345,
151 347,
151 347,
151 348,
151 349,
151 353,
152 355,
152 359,
152 364,
152 367,
153 367,
153 369,
153 374,
153 375,
153 375,
154 379,
154 381,
154 385,
154 388,
155 392,
155 397,
155 401,
155 326,
155 329,
156 330,
156 335,
156 340,
156 343,
157 345,
157 348,
157 349,
157 350,
157 353,
158 354,
158 356,
158 359,
158 362,
159 365,
159 369,
159 371,
159 374,
159 376,
160 378,
160 382,
160 382,
160 385,
161 386,
161 388,
161 390,
161 395,
161 395,
162 398,
162 320,
162 323,
162 328,
163 332,
163 336,
163 338,
163 339,
163 340,
164 343,
164 344,
164 348,
164 350,
165 350,
165 351,
165 354,
165 356,
165 358,
166 361,
166 364,
166 367,
166 370,
167 373,
167 375,
167 376,
167 381,
167 385,
168 385,
168 389,
168 394,
168 394,
169 318,
169 320,
169 322,
169 324,
169 326,
170 327,
170 328,
170 332,
170 332,
171 334,
171 335,
171 336,
171 338,
171 342,
172 343,
172 344,
172 344,
172 348,
173 351,
173 353,
173 354,
173 358,
173 362,
174 363,
174 363,
174 364,
174 367,
175 368,
175 371,
175 373,
175 299,
175 299,
176 300,
176 304,
176 309,
176 310,
177 311,
177 311,
177 314,
177 315,
177 318,
178 322,
178 324,
178 325,
178 329,
179 333,
179 335,
179 336,
179 338,
179 340,
180 345,
180 346,
180 351,
180 351,
181 354,
181 358,
181 358,
181 362,
181 366,
182 369,
182 291,
182 292,
182 295,
183 299,
183 300,
183 305,
183 310,
183 313,
184 318,
184 318,
184 323,
184 323,
185 327,
185 328,
185 331,
185 333,
185 336,
186 336,
186 338,
186 339,
186 342,
187 346,
187 350,
187 353,
187 355,
187 358,
188 362,
188 365,
188 367,
188 369,
189 294,
189 296,
189 301,
189 305,
189 309,
190 313,
190 317,
190 319,
190 320,
191 323,
191 326,
191 329,
191 332,
191 335,
192 335,
192 340,
192 340,
192 341,
193 342,
193 347,
193 349,
193 351,
193 352,
194 355,
194 358,
194 362,
194 363,
195 366,
195 368,
195 369,
195 296,
195 296,
196 297,
196 301,
196 305,
196 305,
197 307,
197 309,
197 309,
197 314,
197 319,
198 320,
198 324,
198 326,
198 327,
199 331,
199 332,
199 337,
199 338,
199 340,
200 342,
200 344,
200 347,
200 348,
201 350,
201 354,
201 356,
201 358,
201 362,
202 363,
202 286,
202 287,
202 291,
203 295,
203 299,
203 304,
203 308,
203 310,
204 312,
204 314,
204 315,
204 318,
205 318,
205 322,
205 324,
205 329,
205 332,
206 334,
206 338,
206 341,
206 342,
207 342,
207 346,
207 347,
207 347,
207 352,
208 356,
208 359,
208 364,
208 366,
209 291,
209 295,
209 299,
209 300,
209 301,
210 304,
210 308,
210 311,
210 314,
210 315,
211 315,
211 318,
211 321,
211 324,
212 325,
212 330,
212 330,
212 334,
212 336,
213 337,
213 338,
213 342,
213 346,
214 347,
214 349,
214 350,
214 351,
214 356,
215 359,
215 361,
215 286,
215 288,
216 293,
216 294,
216 297,
216 301,
216 304,
217 306,
217 310,
217 313,
217 314,
218 317,
218 321,
218 324,
218 325,
218 327,
219 329,
219 331,
219 332,
219 334,
220 337,
220 338,
220 341,
220 342,
220 345,
221 348,
221 351,
221 351,
221 355,
222 355,
222 279,
222 284,
222 286,
222 286,
223 289,
223 290,
223 291,
223 295,
224 298,
224 303,
224 306,
224 307,
224 308,
225 309,
225 310,
225 312,
225 315,
226 320,
226 322,
226 324,
226 324,
226 326,
227 328,
227 331,
227 336,
227 338,
228 338,
228 342,
228 344,
228 348,
228 274,
229 279,
229 283,
229 284,
229 286,
230 290,
230 293,
230 298,
230 300,
230 301,
231 303,
231 308,
231 310,
231 312,
232 312,
232 315,
232 315,
232 320,
232 321,
233 322,
233 324,
233 329,
233 329,
234 330,
234 332,
234 334,
234 335,
234 335,
235 336,
235 338,
235 263,
235 264,
236 268,
236 268,
236 272,
236 274,
236 276,
237 278,
237 280,
237 283,
237 285,
238 289,
238 293,
238 294,
238 297,
238 299,
239 304,
239 308,
239 308,
239 311,
240 314,
240 315,
240 316,
240 320,
240 323,
241 326,
241 328,
241 331,
241 333,
242 334,
242 259,
242 261,
242 264,
242 269,
243 271,
243 276,
243 280,
243 281,
244 282,
244 284,
244 287,
244 290,
244 293,
245 293,
245 297,
245 302,
245 303,
246 304,
246 308,
246 309,
246 311,
246 313,
247 314,
247 317,
247 318,
247 321,
248 321,
248 324,
248 328,
248 332,
248 254,
249 254,
249 258,
249 259,
249 260,
250 261,
250 265,
250 268,
250 269,
250 273,
251 275,
251 277,
251 277,
251 278,
252 281,
252 283,
252 285,
252 288,
252 290,
253 293,
253 294,
253 295,
253 297,
254 300,
254 300,
254 303,
254 305,
254 306,
255 309,
255 312,
255 235,
255 238,
256 240,
256 243,
256 245,
256 248,
256 252,
257 253,
257 257,
257 259,
257 262,
258 265,
258 268,
258 268,
258 270,
258 273,
259 274,
259 275,
259 279,
259 281,
260 285,
260 289,
260 292,
260 296,
260 297,
261 302,
261 304,
261 306,
261 310,
262 311,
262 237,
262 237,
262 240,
262 243,
263 244,
263 249,
263 250,
263 253,
264 257,
264 257,
264 259,
264 263,
264 264,
265 266,
265 267,
265 272,
265 274,
266 277,
266 278,
266 282,
266 286,
266 287,
267 287,
267 289,
267 294,
267 294,
268 296,
268 299,
268 301,
268 302,
268 225,
269 228,
269 229,
269 234,
269 237,
270 240,
270 243,
270 243,
270 247,
270 248,
271 251,
271 252,
271 256,
271 256,
272 260,
272 262,
272 264,
272 267,
272 272,
273 273,
273 274,
273 274,
273 277,
274 278,
274 280,
274 282,
274 286,
274 288,
275 288,
275 291,
275 218,
275 219,
276 222,
276 223,
276 224,
276 227,
276 229,
277 231,
277 231,
277 232,
277 235,
278 236,
278 241,
278 245,
278 247,
278 250,
279 253,
279 255,
279 257,
279 260,
280 261,
280 264,
280 267,
280 270,
280 271,
281 272,
281 274,
281 277,
281 278,
282 279,
282 204,
282 207,
282 212,
282 212,
283 214,
283 215,
283 217,
283 217,
284 218,
284 221,
284 225,
284 226,
284 228,
285 230,
285 235,
285 239,
285 243,
286 247,
286 252,
286 256,
286 258,
286 262,
287 265,
287 268,
287 273,
287 277,
288 280,
288 282,
288 283,
288 284,
288 210,
289 212,
289 216,
289 217,
289 220,
290 220,
290 223,
290 225,
290 226,
290 227,
291 229,
291 230,
291 231,
291 232,
292 233,
292 237,
292 240,
292 240,
292 243,
293 244,
293 248,
293 250,
293 250,
294 253,
294 254,
294 257,
294 257,
294 258,
295 259,
295 263,
295 186,
295 188,
296 193,
296 193,
296 193,
296 194,
296 197,
297 201,
297 201,
297 203,
297 204,
298 207,
298 208,
298 213,
298 217,
298 218,
299 222,
299 222,
299 226,
299 230,
300 231,
300 231,
300 233,
300 237,
300 240,
301 241,
301 245,
301 249,
301 252,
302 254,
302 178,
302 179,
302 182,
302 186,
303 187,
303 191,
303 193,
303 198,
304 200,
304 204,
304 206,
304 206,
304 209,
305 210,
305 212,
305 215,
305 216,
306 220,
306 223,
306 227,
306 231,
306 232,
307 232,
307 235,
307 238,
307 243,
308 247,
308 250,
308 253,
308 257,
308 181,
309 183,
309 187,
309 191,
309 194,
310 199,
310 204,
310 209,
310 212,
310 216,
311 217,
311 218,
311 223,
311 224,
312 225,
312 229,
312 229,
312 234,
312 235,
313 236,
313 240,
313 241,
313 244,
314 247,
314 252,
314 256,
314 256,
314 260,
315 262,
315 267,
315 189,
315 193,
316 196,
316 198,
316 199,
316 204,
316 207,
317 209,
317 210,
317 210,
317 215,
318 216,
318 221,
318 226,
318 230,
318 234,
319 238,
319 242,
319 245,
319 249,
320 252,
320 254,
320 255,
320 255,
320 257,
321 261,
321 263,
321 264,
321 266,
321 267,
322 191,
322 193,
322 195,
322 200,
323 202,
323 204,
323 204,
323 206,
323 210,
324 214,
324 219,
324 221,
324 226,
325 229,
325 233,
325 237,
325 239,
325 240,
326 245,
326 247,
326 252,
326 253,
327 256,
327 260,
327 264,
327 268,
327 269,
328 270,
328 274,
328 276,
328 201,
329 202,
329 203,
329 204,
329 207,
329 210,
330 214,
330 216,
330 217,
330 221,
331 223,
331 227,
331 232,
331 232,
331 235,
332 239,
332 243,
332 244,
332 248,
333 253,
333 256,
333 257,
333 260,
333 265,
334 265,
334 267,
334 268,
334 272,
335 276,
335 277,
335 200,
335 204,
335 204,
336 208,
336 209,
336 209,
336 212,
337 216,
337 219,
337 220,
337 221,
337 221,
338 223,
338 224,
338 226,
338 229,
339 229,
339 233,
339 236,
339 240,
339 244,
340 247,
340 247,
340 248,
340 249,
341 250,
341 251,
341 252,
341 253,
341 257,
342 181,
342 185,
342 190,
342 193,
343 197,
343 199,
343 203,
343 204,
343 205,
344 209,
344 213,
344 216,
344 221,
345 226,
345 230,
345 231,
345 232,
345 232,
346 237,
346 237,
346 238,
346 239,
347 242,
347 243,
347 246,
347 247,
347 249,
348 250,
348 255,
348 259,
348 186,
349 189,
349 193,
349 193,
349 194,
349 195,
350 195,
350 200,
350 201,
350 203,
351 205,
351 208,
351 209,
351 213,
351 216,
352 217,
352 219,
352 221,
352 224,
353 228,
353 232,
353 233,
353 233,
353 233,
354 237,
354 237,
354 239,
354 240,
355 241,
355 244,
355 168,
355 168,
355 169,
356 172,
356 174,
356 176,
356 178,
357 181,
357 185,
357 187,
357 188,
357 189,
358 191,
358 191,
358 194,
358 196,
359 200,
359 203,
359 204,
359 206,
359 209,
360 212,
360 213,
360 216,
360 219,
361 223,
361 225,
361 230,
361 232,
361 236,
362 160,
362 160,
362 162,
362 163,
363 166,
363 170,
363 173,
363 175,
363 176,
364 177,
364 181,
364 185,
364 185,
365 189,
365 191,
365 193,
365 193,
365 193,
366 198,
366 199,
366 202,
366 205,
367 206,
367 209,
367 213,
367 218,
367 218,
368 221,
368 225,
368 228,
368 154,
369 158,
369 163,
369 164,
369 168,
369 170,
370 171,
370 175,
370 180,
370 183,
371 186,
371 189,
371 192,
371 197,
371 199,
372 202,
372 206,
372 209,
372 210,
373 214,
373 215,
373 215,
373 219,
373 220,
374 220,
374 224,
374 225,
374 230,
375 234,
375 237,
375 161,
375 165,
375 168,
376 169,
376 170,
376 172,
376 177,
377 180,
377 184,
377 189,
377 192,
377 197,
378 199,
378 201,
378 202,
378 202,
379 204,
379 206,
379 208,
379 210,
379 211,
380 214,
380 218,
380 220,
380 222,
381 224,
381 226,
381 226,
381 227,
381 230,
382 157,
382 158,
382 162,
382 164,
383 165,
383 169,
383 174,
383 174,
383 175,
384 176,
384 177,
384 179,
384 181,
385 184,
385 187,
385 191,
385 193,
385 193,
386 196,
386 196,
386 197,
386 199,
387 200,
387 205,
387 206,
387 207,
387 209,
388 213,
388 217,
388 222,
388 146,
389 149,
389 151,
389 152,
389 153,
389 157,
390 160,
390 165,
390 168,
390 170,
391 170,
391 174,
391 179,
391 181,
391 186,
392 190,
392 194,
392 198,
392 202,
393 206,
393 210,
393 212,
393 217,
393 219,
394 224,
394 225,
394 228,
394 232,
395 233,
395 237,
395 160,
395 160,
395 165,
396 165,
396 169,
396 173,
396 173,
397 178,
397 183,
397 185,
397 189,
397 192,
398 196,
398 199,
398 200,
398 205,
399 205,
399 206,
399 207,
399 208,
399 209,
400 210,
400 213,
400 217,
400 217,
401 218,
401 223,
401 227,
401 229,
401 234,
402 158,
402 161,
402 162,
402 167,
403 168,
403 170,
403 175,
403 179,
403 182,
404 183,
404 186,
404 188,
404 192,
405 193,
405 195,
405 195,
405 199,
405 202,
406 206,
406 209,
406 210,
406 215,
407 217,
407 220,
407 222,
407 224,
407 228,
408 231,
408 233,
408 234,
408 159,
409 163,
409 164,
409 167,
409 170,
409 175,
410 176,
410 181,
410 184,
410 188,
411 193,
411 195,
411 196,
411 198,
411 203,
412 206,
412 208,
412 213,
412 217,
413 219,
413 221,
413 226,
413 229,
413 230,
414 233,
414 235,
414 236,
414 240,
415 243,
415 247,
415 174,
415 177,
415 178,
416 182,
416 184,
416 185,
416 186,
417 187,
417 190,
417 192,
417 192,
417 195,
418 199,
418 202,
418 205,
418 210,
419 213,
419 216,
419 219,
419 221,
419 223,
420 223,
420 224,
420 225,
420 226,
421 227,
421 231,
421 232,
421 237,
421 240,
422 163,
422 163,
422 168,
422 171,
423 173,
423 176,
423 177,
423 181,
423 184,
424 187,
424 187,
424 189,
424 191,
425 194,
425 195,
425 198,
425 199,
425 200,
426 201,
426 204,
426 208,
426 212,
427 212,
427 217,
427 220,
427 223,
427 227,
428 228,
428 230,
428 231,
428 154,
429 155,
429 160,
429 160,
429 160,
429 161,
430 163,
430 166,
430 170,
430 172,
431 175,
431 177,
431 177,
431 179,
431 180,
432 181,
432 184,
432 187,
432 190,
432 192,
433 194,
433 195,
433 197,
433 201,
434 203,
434 205,
434 209,
434 210,
434 211,
435 214,
435 138,
435 143,
435 144,
436 146,
436 146,
436 148,
436 151,
436 155,
437 158,
437 161,
437 161,
437 164,
438 164,
438 168,
438 172,
438 177,
438 178,
439 182,
439 186,
439 189,
439 189,
440 193,
440 195,
440 199,
440 200,
440 201,
441 205,
441 206,
441 206,
441 208,
442 134,
442 137,
442 138,
442 141,
442 142,
443 143,
443 144,
443 147,
443 151,
444 154,
444 156,
444 161,
444 165,
444 167,
445 168,
445 169,
445 172,
445 176,
446 177,
446 178,
446 181,
446 182,
446 184,
447 185,
447 190,
447 192,
447 192,
448 194,
448 197,
448 201,
448 126,
448 130,
449 133,
449 138,
449 142,
449 143,
450 143,
450 147,
450 149,
450 151,
450 152,
451 156,
451 158,
451 161,
451 164,
452 168,
452 170,
452 173,
452 177,
452 178,
453 181,
453 186,
453 188,
453 189,
454 193,
454 197,
454 198,
454 202,
454 206,
455 207,
455 132,
455 136,
455 137,
456 138,
456 140,
456 145,
456 146,
456 149,
457 151,
457 152,
457 152,
457 157,
458 162,
458 163,
458 166,
458 167,
458 170,
459 175,
459 179,
459 180,
459 183,
460 186,
460 190,
460 194,
460 197,
460 200,
461 203,
461 207,
461 207,
461 211,
462 135,
462 140,
462 141,
462 146,
462 148,
463 151,
463 156,
463 159,
463 161,
464 163,
464 164,
464 165,
464 168,
464 169,
465 173,
465 176,
465 180,
465 181,
466 182,
466 182,
466 184,
466 189,
466 191,
467 193,
467 198,
467 201,
467 203,
468 205,
468 209,
468 209,
468 132,
468 136,
469 137,
469 139,
469 143,
469 144,
470 145,
470 149,
470 151,
470 156,
470 156,
471 159,
471 160,
471 162,
471 165,
472 168,
472 171,
472 173,
472 174,
472 176,
473 178,
473 180,
473 182,
473 185,
474 188,
474 192,
474 196,
474 201,
474 205,
475 206,
475 130,
475 132,
475 134,
476 138,
476 142,
476 146,
476 147,
476 148,
477 153,
477 154,
477 155,
477 159,
478 161,
478 161,
478 165,
478 166,
478 170,
479 175,
479 175,
479 178,
479 181,
480 184,
480 188,
480 189,
480 190,
480 193,
481 194,
481 194,
481 199,
481 199,
482 122,
482 125,
482 128,
482 130,
482 131,
483 132,
483 132,
483 133,
483 136,
484 140,
484 141,
484 146,
484 148,
484 149,
485 153,
485 155,
485 157,
485 159,
486 161,
486 165,
486 167,
486 168,
486 171,
487 171,
487 175,
487 178,
487 182,
488 187,
488 188,
488 191,
488 118,
488 118,
489 122,
489 123,
489 125,
489 129,
490 129,
490 133,
490 135,
490 137,
490 139,
491 142,
491 143,
491 148,
491 148,
492 148,
492 152,
492 155,
492 159,
492 161,
493 164,
493 168,
493 171,
493 171,
494 173,
494 174,
494 176,
494 176,
494 177,
495 182,
495 106,
495 107,
495 110,
496 113,
496 117,
496 117,
496 119,
496 119,
497 120,
497 120,
497 121,
497 121,
498 125,
498 129,
498 133,
498 135,
498 136,
499 141,
499 144,
499 149,
499 153,
500 154,
500 159,
500 159,
500 162,
500 166,
501 169,
501 170,
501 172,
501 176,
502 103,
502 105,
502 107,
502 111,
502 115,
503 118,
503 121,
503 123,
503 125,
504 126,
504 127,
504 129,
504 130,
504 134,
505 137,
505 139,
505 143,
505 146,
506 147,
506 149,
506 150,
506 151,
506 153,
507 157,
507 159,
507 162,
507 163,
508 164,
508 168,
508 172,
508 96,
508 100,
509 103,
509 107,
509 111,
509 116,
510 119,
510 121,
510 122,
510 126,
510 131,
511 133,
511 135,
511 137,
511 138,
512 140,
512 143,
512 147,
512 151,
512 155,
513 159,
513 163,
513 168,
513 168,
514 169,
514 174,
514 174,
514 179,
514 183,
515 187,
515 111,
515 115,
515 117,
516 119,
516 122,
516 125,
516 127,
516 128,
517 133,
517 133,
517 136,
517 141,
518 142,
518 145,
518 148,
518 151,
518 151,
519 153,
519 154,
519 156,
519 157,
520 160,
520 165,
520 168,
520 171,
520 176,
521 177,
521 180,
521 184,
521 188,
522 112,
522 114,
522 116,
522 120,
522 124,
523 126,
523 127,
523 131,
523 135,
524 139,
524 142,
524 145,
524 146,
524 147,
525 152,
525 152,
525 155,
525 156,
526 159,
526 163,
526 166,
526 167,
526 170,
527 173,
527 174,
527 175,
527 175,
528 177,
528 180,
528 183,
528 108,
528 112,
529 116,
529 116,
529 119,
529 121,
530 126,
530 129,
530 134,
530 134,
530 138,
531 142,
531 144,
531 147,
531 149,
532 150,
532 151,
532 155,
532 160,
532 161,
533 165,
533 170,
533 173,
533 177,
534 180,
534 184,
534 185,
534 186,
534 190,
535 192,
535 116,
535 121,
535 124,
536 125,
536 127,
536 129,
536 132,
536 133,
537 135,
537 135,
537 136,
537 137,
538 141,
538 142,
538 144,
538 144,
538 149,
539 150,
539 153,
539 154,
539 158,
540 161,
540 163,
540 165,
540 170,
540 173,
541 175,
541 178,
541 178,
541 181,
542 104,
542 105,
542 106,
542 108,
542 112,
543 117,
543 117,
543 121,
543 123,
543 123,
544 128,
544 129,
544 133,
544 137,
545 141,
545 145,
545 147,
545 149,
545 150,
546 151,
546 155,
546 157,
546 160,
547 162,
547 165,
547 167,
547 170,
547 172,
548 175,
548 178,
548 105,
548 106,
549 111,
549 112,
549 114,
549 117,
549 120,
550 121,
550 125,
550 126,
550 126,
551 131,
551 132,
551 135,
551 135,
551 136,
552 137,
552 142,
552 145,
552 145,
553 150,
553 153,
553 155,
553 158,
553 160,
554 161,
554 163,
554 164,
554 165,
555 168,
555 95,
555 99,
555 100,
555 102,
556 107,
556 108,
556 108,
556 112,
557 115,
557 118,
557 121,
557 123,
557 126,
558 126,
558 126,
558 129,
558 129,
559 133,
559 137,
559 142,
559 144,
559 146,
560 146,
560 148,
560 149,
560 149,
561 150,
561 152,
561 156,
561 159,
561 86,
562 87,
562 89,
562 94,
562 98,
563 100,
563 101,
563 102,
563 106,
563 108,
564 113,
564 116,
564 120,
564 124,
565 128,
565 133,
565 134,
565 138,
565 142,
566 146,
566 147,
566 148,
566 153,
567 156,
567 156,
567 161,
567 166,
567 167,
568 171,
568 174,
568 101,
568 105,
569 106,
569 108,
569 111,
569 114,
569 114,
570 117,
570 120,
570 120,
570 121,
571 123,
571 127,
571 132,
571 133,
571 138,
572 139,
572 139,
572 140,
572 142,
573 146,
573 148,
573 151,
573 151,
573 152,
574 153,
574 154,
574 157,
574 160,
575 163,
575 86,
575 87,
575 92,
575 96,
576 97,
576 101,
576 104,
576 106,
577 108,
577 113,
577 115,
577 119,
577 121,
578 123,
578 127,
578 130,
578 132,
579 135,
579 138,
579 141,
579 146,
579 146,
580 148,
580 151,
580 154,
580 156,
581 157,
581 160,
581 161,
581 162,
581 88,
582 90,
582 90,
582 95,
582 97,
583 102,
583 103,
583 103,
583 108,
583 111,
584 115,
584 117,
584 119,
584 123,
585 125,
585 127,
585 127,
585 131,
585 134,
586 137,
586 139,
586 144,
586 148,
587 153,
587 157,
587 158,
587 159,
587 159,
588 160,
588 160,
588 86,
588 89,
589 94,
589 96,
589 100,
589 104,
589 106,
590 108,
590 111,
590 114,
590 116,
591 118,
591 119,
591 121,
591 122,
591 125,
592 128,
592 130,
592 133,
592 135,
593 137,
593 140,
593 142,
593 146,
593 146,
594 150,
594 154,
594 155,
594 160,
595 165,
595 87,
595 90,
595 92,
595 97,
596 97,
596 102,
596 104,
596 109,
597 114,
597 115,
597 117,
597 119,
597 124,
598 125,
598 129,
598 133,
598 135,
599 138,
599 140,
599 142,
599 145,
599 147,
600 150,
600 151,
600 156,
600 156,
601 158,
601 161,
601 162,
601 164,
601 86,
602 87,
602 90,
602 91,
602 96,
603 100,
603 100,
603 104,
603 105,
603 109,
604 111,
604 113,
604 116,
604 121,
605 124,
605 127,
605 130,
605 135,
605 137,
606 141,
606 142,
606 146,
606 149,
607 151,
607 156,
607 160,
607 164,
607 168,
608 170,
608 174,
608 100,
608 102,
609 107,
609 109,
609 111,
609 116,
609 117,
610 120,
610 124,
610 127,
610 131,
611 135,
611 138,
611 139,
611 141,
611 146,
612 147,
612 150,
612 151,
612 154,
613 156,
613 158,
613 158,
613 162,
613 162,
614 164,
614 169,
614 170,
614 171,
615 175,
615 102,
615 104,
615 106,
615 106,
616 109,
616 111,
616 115,
616 116,
617 120,
617 123,
617 124,
617 125,
617 127,
618 128,
618 130,
618 134,
618 138,
619 142,
619 145,
619 149,
619 149,
619 152,
620 156,
620 158,
620 160,
620 161,
621 166,
621 170,
621 173,
621 178,
621 101,
622 103,
622 107,
622 110,
622 113,
623 116,
623 120,
623 121,
623 126,
623 128,
624 129,
624 131,
624 134,
624 138,
625 139,
625 141,
625 143,
625 147,
625 149,
626 153,
626 154,
626 159,
626 161,
627 165,
627 166,
627 170,
627 172,
627 173,
628 176,
628 181,
628 104,
628 108,
629 109,
629 112,
629 117,
629 121,
629 125,
630 126,
630 126,
630 128,
630 130,
631 132,
631 134,
631 135,
631 137,
631 138,
632 141,
632 144,
632 146,
632 149,
633 150,
633 151,
633 152,
633 152,
633 157,
634 158,
634 160,
634 163,
634 165,
635 170,
635 96,
635 96,
635 98,
635 102,
636 106,
636 110,
636 114,
636 119,
637 122,
637 126,
637 129,
637 130,
637 130,
638 133,
638 137,
638 139,
638 143,
639 145,
639 146,
639 148,
639 151,
639 155,
640 156,
640 160,
640 162,
640 164,
641 169,
641 171,
641 175,
641 176,
641 101,
642 103,
642 105,
642 107,
642 111,
643 111,
643 111,
643 112,
643 113,
643 114,
644 116,
644 120,
644 121,
644 123,
645 124,
645 127,
645 129,
645 132,
645 135,
646 137,
646 137,
646 139,
646 140,
647 143,
647 146,
647 147,
647 148,
647 150,
648 153,
648 158,
648 82,
648 86,
649 90,
649 92,
649 96,
649 98,
649 102,
650 106,
650 110,
650 112,
650 117,
651 120,
651 124,
651 126,
651 129,
651 129,
652 132,
652 135,
652 136,
652 136,
653 141,
653 143,
653 147,
653 149,
653 151,
654 151,
654 153,
654 154,
654 157,
654 160,
655 86,
655 87,
655 88,
655 92,
656 96,
656 99,
656 104,
656 104,
656 108,
657 109,
657 112,
657 114,
657 116,
658 117,
658 120,
658 121,
658 121,
658 125,
659 126,
659 129,
659 131,
659 132,
660 136,
660 138,
660 141,
660 144,
660 148,
661 152,
661 154,
661 154,
661 77,
662 79,
662 83,
662 85,
662 90,
662 94,
663 98,
663 100,
663 101,
663 105,
664 108,
664 113,
664 118,
664 122,
664 123,
665 123,
665 125,
665 125,
665 126,
666 130,
666 130,
666 135,
666 139,
666 140,
667 141,
667 145,
667 145,
667 147,
668 148,
668 150,
668 74,
668 76,
668 77,
669 78,
669 79,
669 80,
669 81,
670 84,
670 87,
670 90,
670 91,
670 93,
671 97,
671 98,
671 100,
671 104,
672 105,
672 108,
672 111,
672 114,
672 117,
673 119,
673 122,
673 124,
673 125,
674 126,
674 130,
674 134,
674 138,
674 139,
675 64,
675 67,
675 68,
675 69,
676 73,
676 76,
676 80,
676 80,
676 85,
677 89,
677 92,
677 95,
677 96,
678 100,
678 101,
678 103,
678 106,
678 110,
679 113,
679 115,
679 117,
679 119,
680 121,
680 121,
680 125,
680 128,
680 129,
681 129,
681 134,
681 137,
681 60,
682 62,
682 64,
682 67,
682 67,
682 72,
683 74,
683 78,
683 78,
683 79,
684 81,
684 83,
684 87,
684 90,
684 92,
685 96,
685 98,
685 101,
685 103,
686 105,
686 108,
686 111,
686 112,
686 113,
687 114,
687 118,
687 122,
687 125,
688 125,
688 126,
688 52,
688 52,
688 54,
689 57,
689 60,
689 60,
689 63,
690 63,
690 64,
690 65,
690 66,
690 66,
691 69,
691 70,
691 72,
691 76,
692 79,
692 83,
692 84,
692 88,
692 90,
693 92,
693 94,
693 98,
693 99,
694 101,
694 104,
694 108,
694 113,
694 117,
695 42,
695 45,
695 49,
695 53,
696 56,
696 56,
696 60,
696 64,
696 67,
697 68,
697 73,
697 74,
697 78,
698 83,
698 85,
698 88,
698 92,
698 93,
699 95,
699 97,
699 101,
699 101,
700 105,
700 106,
700 108,
700 109,
700 112,
701 117,
701 121,
701 126,
701 51,
702 51,
702 52,
702 56,
702 57,
702 59,
703 62,
703 67,
703 72,
703 73,
704 75,
704 75,
704 77,
704 80,
704 83,
705 86,
705 89,
705 92,
705 93,
706 96,
706 99,
706 103,
706 108,
706 112,
707 114,
707 119,
707 119,
707 121,
708 122,
708 124"/></svg>