<?xml version="1.0"?><svg xmlns="http://www.w3.org/2000/svg" xmlns:xlink="http://www.w3.org/1999/xlink" style="fill:black" width="750" height="500">
<rect x="1" y="1" width="750" height="500" style="fill:#C6F1C7; stroke:#C6F1C7"/>
<rect x="42" y="42" width="666" height="416" style="fill:white; stroke:black"/>
<line x1="42" y1="479" x2="42" y2="42" style="stroke-width: 0.2; stroke:gray"/>
<text x="45" y="479" font-size="11" font-family="sans-serif">2000-01</text>
<line x1="5" y1="458" x2="708" y2="458" style="stroke-width: 0.2; stroke:gray"/>
<text x="5" y="456" font-size="11" font-family="sans-serif">11084</text>
<line x1="5" y1="435" x2="708" y2="435" style="stroke-width: 0.2; stroke:gray"/>
<text x="5" y="433" font-size="11" font-family="sans-serif">11562</text>
<line x1="5" y1="417" x2="708" y2="417" style="stroke-width: 0.2; stroke:gray"/>
<text x="5" y="415" font-size="11" font-family="sans-serif">11947</text>
<line x1="103" y1="479" x2="103" y2="42" style="stroke-width: 0.2; stroke:gray"/>
<text x="106" y="479" font-size="11" font-family="sans-serif">2000-10</text>
<line x1="5" y1="396" x2="708" y2="396" style="stroke-width: 0.2; stroke:gray"/>
<text x="5" y="394" font-size="11" font-family="sans-serif">12388</text>
<line x1="163" y1="479" x2="163" y2="42" style="stroke-width: 0.2; stroke:gray"/>
<text x="166" y="479" font-size="11" font-family="sans-serif">2001-07</text>
<line x1="5" y1="380" x2="708" y2="380" style="stroke-width: 0.2; stroke:gray"/>
<text x="5" y="378" font-size="11" font-family="sans-serif">12730</text>
<line x1="5" y1="360" x2="708" y2="360" style="stroke-width: 0.2; stroke:gray"/>
<text x="5" y="358" font-size="11" font-family="sans-serif">13147</text>
<line x1="5" y1="344" x2="708" y2="344" style="stroke-width: 0.2; stroke:gray"/>
<text x="5" y="342" font-size="11" font-family="sans-serif">13473</text>
<line x1="224" y1="479" x2="224" y2="42" style="stroke-width: 0.2; stroke:gray"/>
<text x="227" y="479" font-size="11" font-family="sans-serif">2002-04</text>
<line x1="5" y1="328" x2="708" y2="328" style="stroke-width: 0.2; stroke:gray"/>
<text x="5" y="326" font-size="11" font-family="sans-serif">13820</text>
<line x1="5" y1="311" x2="708" y2="311" style="stroke-width: 0.2; stroke:gray"/>
<text x="5" y="309" font-size="11" font-family="sans-serif">14173</text>
<line x1="5" y1="283" x2="708" y2="283" style="stroke-width: 0.2; stroke:gray"/>
<text x="5" y="281" font-size="11" font-family="sans-serif">14757</text>
<line x1="5" y1="256" x2="708" y2="256" style="stroke-width: 0.2; stroke:gray"/>
<text x="5" y="254" font-size="11" font-family="sans-serif">15320</text>
<line x1="284" y1="479" x2="284" y2="42" style="stroke-width: 0.2; stroke:gray"/>
<text x="287" y="479" font-size="11" font-family="sans-serif">2003-01</text>
<line x1="5" y1="220" x2="708" y2="220" style="stroke-width: 0.2; stroke:gray"/>
<text x="5" y="218" font-size="11" font-family="sans-serif">16082</text>
<line x1="345" y1="479" x2="345" y2="42" style="stroke-width: 0.2; stroke:gray"/>
<text x="348" y="479" font-size="11" font-family="sans-serif">2003-10</text>
<line x1="5" y1="194" x2="708" y2="194" style="stroke-width: 0.2; stroke:gray"/>
<text x="5" y="192" font-size="11" font-family="sans-serif">16624</text>
<line x1="5" y1="173" x2="708" y2="173" style="stroke-width: 0.2; stroke:gray"/>
<text x="5" y="171" font-size="11" font-family="sans-serif">17080</text>
<line x1="405" y1="479" x2="405" y2="42" style="stroke-width: 0.2; stroke:gray"/>
<text x="408" y="479" font-size="11" font-family="sans-serif">2004-07</text>
<line x1="5" y1="153" x2="708" y2="153" style="stroke-width: 0.2; stroke:gray"/>
<text x="5" y="151" font-size="11" font-family="sans-serif">17484</text>
<line x1="466" y1="479" x2="466" y2="42" style="stroke-width: 0.2; stroke:gray"/>
<text x="469" y="479" font-size="11" font-family="sans-serif">2005-04</text>
<line x1="5" y1="135" x2="708" y2="135" style="stroke-width: 0.2; stroke:gray"/>
<text x="5" y="133" font-size="11" font-family="sans-serif">17860</text>
<line x1="5" y1="116" x2="708" y2="116" style="stroke-width: 0.2; stroke:gray"/>
<text x="5" y="114" font-size="11" font-family="sans-serif">18266</text>
<line x1="526" y1="479" x2="526" y2="42" style="stroke-width: 0.2; stroke:gray"/>
<text x="529" y="479" font-size="11" font-family="sans-serif">2006-01</text>
<line x1="587" y1="479" x2="587" y2="42" style="stroke-width: 0.2; stroke:gray"/>
<text x="590" y="479" font-size="11" font-family="sans-serif">2006-10</text>
<line x1="5" y1="98" x2="708" y2="98" style="stroke-width: 0.2; stroke:gray"/>
<text x="5" y="96" font-size="11" font-family="sans-serif">18639</text>
<line x1="647" y1="479" x2="647" y2="42" style="stroke-width: 0.2; stroke:gray"/>
<text x="650" y="479" font-size="11" font-family="sans-serif">2007-07</text>
<line x1="5" y1="70" x2="708" y2="70" style="stroke-width: 0.2; stroke:gray"/>
<text x="5" y="68" font-size="11" font-family="sans-serif">19233</text>
<line x1="5" y1="42" x2="708" y2="42" style="stroke-width: 0.2; stroke:gray"/>
<text x="5" y="40" font-size="11" font-family="sans-serif">19821</text>
<polyline style="stroke:black; stroke-width: 2; fill: none;" points="42 458,
49 455,
55 446,
62 443,
69 435,
76 438,
82 442,
89 423,
96 417,
103 416,
109 411,
116 415,
123 414,
129 403,
136 396,
143 386,
150 385,
156 389,
163 380,
170 360,
177 349,
183 352,
190 353,
197 346,
203 346,
210 344,
217 337,
224 328,
230 319,
237 311,
244 303,
251 283,
257 279,
264 271,
271 256,
277 242,
284 244,
291 220,
298 210,
304 216,
311 224,
318 229,
325 236,
331 234,
338 221,
345 215,
351 194,
358 183,
365 185,
372 190,
378 181,
385 173,
392 189,
399 186,
405 194,
412 201,
419 188,
425 174,
432 160,
439 153,
446 151,
452 150,
459 160,
466 151,
473 152,
479 135,
486 131,
493 116,
499 115,
506 118,
513 127,
520 128,
526 130,
533 129,
540 116,
547 114,
553 101,
560 106,
567 105,
573 101,
580 101,
587 98,
594 103,
600 105,
607 117,
614 115,
621 119,
627 112,
634 114,
641 97,
647 99,
654 90,
661 87,
668 70,
674 68,
681 55,
688 42,
695 51,
701 71"/></svg>