<?xml version="1.0"?>
<svg width="1300" height="1300">
<desc>Developer Works Dynamic Scatter Graph Scaling Example</desc>
<g transform="translate(50,50) scale(0.5)">
<!-- Now Draw the main X and Y axis -->
<g style="stroke-width:5; stroke:black">
<!-- X Axis -->
<path d="M 0 1000 L 1000 1000 Z"/>
<!-- Y Axis -->
<path d="M 0 0 L 0 1000 Z"/>
</g>
<g style="fill:none; stroke:#B0B0B0; stroke-width:5; stroke-dasharray:2 4;text-anchor:end; font-size:30">
<path d="M 0 0 L 1000 0 Z"/>
<path d="M 0 500 L 1000 500 Z"/>
<path d="M 0 250 L 1000 250 Z"/>
<path d="M 0 750 L 1000 750 Z"/>
<path d="M 1000 0 L 1000 1000 Z"/>
<path d="M 500 0 L 500 1000 Z"/>
<path d="M 250 0 L 250 1000 Z"/>
<path d="M 750 0 L 750 1000 Z"/>
</g>
<g style="fill:black; font-size:15; stroke:none">
 <text x="-35" y="10" >3251</text>
 <text x="-45" y="500" >1625.5</text>
 <text x="-45" y="750" >812.75</text>
 <text x="-45" y="250" >2438.25</text>
 <text x="990" y="1030" >2504</text>
 <text x="730" y="1030" >1878.0</text>
 <text x="490" y="1030" >1252.0</text>
 <text x="230" y="1030" >626.0</text>
</g>
    <g style="fill:none; stroke:red; stroke-width:3">
  <line x1="-1" y1="998" x2="8" y2="988" />
  <line x1="8" y1="998" x2="-1" y2="988" />
  <line x1="6" y1="992" x2="16" y2="982" />
  <line x1="16" y1="992" x2="6" y2="982" />
  <line x1="14" y1="986" x2="24" y2="976" />
  <line x1="24" y1="986" x2="14" y2="976" />
  <line x1="22" y1="980" x2="32" y2="970" />
  <line x1="32" y1="980" x2="22" y2="970" />
  <line x1="30" y1="974" x2="40" y2="964" />
  <line x1="40" y1="974" x2="30" y2="964" />
  <line x1="38" y1="968" x2="48" y2="958" />
  <line x1="48" y1="968" x2="38" y2="958" />
  <line x1="46" y1="961" x2="56" y2="951" />
  <line x1="56" y1="961" x2="46" y2="951" />
  <line x1="50" y1="958" x2="60" y2="948" />
  <line x1="60" y1="958" x2="50" y2="948" />
  <line x1="58" y1="952" x2="68" y2="942" />
  <line x1="68" y1="952" x2="58" y2="942" />
  <line x1="66" y1="946" x2="76" y2="936" />
  <line x1="76" y1="946" x2="66" y2="936" />
  <line x1="74" y1="940" x2="84" y2="930" />
  <line x1="84" y1="940" x2="74" y2="930" />
  <line x1="82" y1="934" x2="92" y2="924" />
  <line x1="92" y1="934" x2="82" y2="924" />
  <line x1="90" y1="928" x2="100" y2="918" />
  <line x1="100" y1="928" x2="90" y2="918" />
  <line x1="98" y1="921" x2="108" y2="911" />
  <line x1="108" y1="921" x2="98" y2="911" />
  <line x1="106" y1="915" x2="116" y2="905" />
  <line x1="116" y1="915" x2="106" y2="905" />
  <line x1="194" y1="930" x2="204" y2="920" />
  <line x1="204" y1="930" x2="194" y2="920" />
  <line x1="491" y1="6" x2="501" y2="-3" />
  <line x1="501" y1="6" x2="491" y2="-3" />
  <line x1="207" y1="905" x2="217" y2="895" />
  <line x1="217" y1="905" x2="207" y2="895" />
  <line x1="88" y1="905" x2="98" y2="895" />
  <line x1="98" y1="905" x2="88" y2="895" />
  <line x1="88" y1="847" x2="98" y2="837" />
  <line x1="98" y1="847" x2="88" y2="837" />
  <line x1="255" y1="5" x2="265" y2="-5" />
  <line x1="265" y1="5" x2="255" y2="-5" />
  <line x1="169" y1="933" x2="179" y2="923" />
  <line x1="179" y1="933" x2="169" y2="923" />
  <line x1="211" y1="841" x2="221" y2="831" />
  <line x1="221" y1="841" x2="211" y2="831" />
  <line x1="566" y1="803" x2="576" y2="793" />
  <line x1="576" y1="803" x2="566" y2="793" />
  <line x1="495" y1="389" x2="505" y2="379" />
  <line x1="505" y1="389" x2="495" y2="379" />
  <line x1="995" y1="718" x2="1005" y2="708" />
  <line x1="1005" y1="718" x2="995" y2="708" />
  <line x1="8" y1="905" x2="18" y2="895" />
  <line x1="18" y1="905" x2="8" y2="895" />
  <line x1="391" y1="174" x2="401" y2="164" />
  <line x1="401" y1="174" x2="391" y2="164" />
    </g>
<!-- End of Data -->
</g>
</svg>