<?xml version="1.0"?>
<svg width="1300" height="1300">
<desc>Developer Works Dynamic LineGraph Scaling Example</desc>
<g transform="translate(50,50) scale(0.5)">
<!-- Now Draw the main X and Y axis -->
<g style="stroke-width:5; stroke:black">
<!-- X Axis -->
<path d="M 0 1000 L 1000 1000 Z"/>
<!-- Y Axis -->
<path d="M 0 0 L 0 1000 Z"/>
</g>
<g style="fill:none; stroke:#B0B0B0; stroke-width:5; stroke-dasharray:2 4;text-anchor:end; font-size:30">
<path d="M 0 0 L 1000 0 Z"/>
<path d="M 0 500 L 1000 500 Z"/>
<path d="M 1000 0 L 1000 1000 Z"/>
<path d="M 500 0 L 500 1000 Z"/>
 <text style="fill:black; stroke:none" x="-10" y="0" >1440</text>
 <text style="fill:black; stroke:none" x="-10" y="500" >720</text>
 <text style="fill:black; stroke:none" x="510" y="1030" >500</text>
 <text style="fill:black; stroke:none" x="1010" y="1030" >1000</text>
</g>
<polyline points="0 1000, 1.0 993.0555555555555,
 2.0 986.1111111111111,
 3.0 979.1666666666666,
 4.0 972.2222222222222,
 5.0 965.2777777777778,
 6.0 958.3333333333334,
 7.0 951.3888888888889,
 8.0 930.5555555555555,
 9.0 982.6388888888889,
 10.0 993.0555555555555,
 11.0 986.1111111111111,
 12.0 979.1666666666666,
 13.0 972.2222222222222,
 14.0 965.2777777777778,
 15.0 958.3333333333334,
 16.0 951.3888888888889,
 17.0 930.5555555555555,
 18.0 982.6388888888889,
 19.0 993.0555555555555,
 20.0 986.1111111111111,
 21.0 979.1666666666666,
 22.0 972.2222222222222,
 23.0 965.2777777777778,
 24.0 958.3333333333334,
 25.0 951.3888888888889,
 26.0 930.5555555555555,
 27.0 982.6388888888889,
 28.0 993.0555555555555,
 29.0 986.1111111111111,
 30.0 979.1666666666666,
 31.0 972.2222222222222,
 32.0 965.2777777777778,
 33.0 958.3333333333334,
 34.0 951.3888888888889,
 35.0 993.0555555555555,
 36.0 986.1111111111111,
 37.0 979.1666666666666,
 38.0 972.2222222222222,
 39.0 965.2777777777778,
 40.0 958.3333333333334,
 41.0 951.3888888888889,
 42.0 930.5555555555555,
 43.0 982.6388888888889,
 44.0 930.5555555555555,
 45.0 982.6388888888889,
 46.0 993.0555555555555,
 47.0 986.1111111111111,
 48.0 993.0555555555555,
 49.0 979.1666666666666,
 50.0 972.2222222222222,
 51.0 965.2777777777778,
 52.0 958.3333333333334,
 53.0 951.3888888888889,
 54.0 930.5555555555555,
 55.0 982.6388888888889,
 56.0 993.0555555555555,
 57.0 986.1111111111111,
 58.0 979.1666666666666,
 59.0 972.2222222222222,
 60.0 965.2777777777778,
 61.0 958.3333333333334,
 62.0 951.3888888888889,
 63.0 930.5555555555555,
 64.0 982.6388888888889,
 65.0 993.0555555555555,
 66.0 986.1111111111111,
 67.0 979.1666666666666,
 68.0 972.2222222222222,
 69.0 965.2777777777778,
 70.0 958.3333333333334,
 71.0 951.3888888888889,
 72.0 930.5555555555555,
 73.0 965.2777777777778,
 74.0 958.3333333333334,
 75.0 951.3888888888889,
 76.0 930.5555555555555,
 77.0 982.6388888888889,
 78.0 993.0555555555555,
 79.0 986.1111111111111,
 80.0 979.1666666666666,
 81.0 972.2222222222222,
 82.0 965.2777777777778,
 83.0 958.3333333333334,
 84.0 951.3888888888889,
 85.0 930.5555555555555,
 86.0 982.6388888888889,
 87.0 993.0555555555555,
 88.0 986.1111111111111,
 89.0 979.1666666666666,
 90.0 972.2222222222222,
 91.0 965.2777777777778,
 92.0 958.3333333333334,
 93.0 951.3888888888889,
 94.0 930.5555555555555,
 95.0 982.6388888888889,
 96.0 993.0555555555555,
 97.0 986.1111111111111,
 98.0 979.1666666666666,
 99.0 972.2222222222222,
 100.0 996.5277777777778,
 101.0 982.6388888888889,
 102.0 993.0555555555555,
 103.0 986.1111111111111,
 104.0 979.1666666666666,
 105.0 972.2222222222222,
 106.0 965.2777777777778,
 107.0 958.3333333333334,
 108.0 951.3888888888889,
 109.0 930.5555555555555,
 110.0 982.6388888888889,
 111.0 993.0555555555555,
 112.0 986.1111111111111,
 113.0 979.1666666666666,
 114.0 972.2222222222222,
 115.0 965.2777777777778,
 116.0 958.3333333333334,
 117.0 951.3888888888889,
 118.0 895.8333333333334,
 119.0 982.6388888888889,
 120.0 993.0555555555555,
 121.0 986.1111111111111,
 122.0 979.1666666666666,
 123.0 972.2222222222222,
 124.0 965.2777777777778,
 125.0 958.3333333333334,
 126.0 951.3888888888889,
 127.0 930.5555555555555,
 128.0 982.6388888888889,
 129.0 965.2777777777778,
 130.0 958.3333333333334,
 131.0 951.3888888888889,
 132.0 930.5555555555555,
 133.0 982.6388888888889,
 134.0 993.0555555555555,
 135.0 986.1111111111111,
 136.0 979.1666666666666,
 137.0 972.2222222222222,
 138.0 965.2777777777778,
 139.0 958.3333333333334,
 140.0 951.3888888888889,
 141.0 930.5555555555555,
 142.0 982.6388888888889,
 143.0 993.0555555555555,
 144.0 986.1111111111111,
 145.0 979.1666666666666,
 146.0 972.2222222222222,
 147.0 965.2777777777778,
 148.0 958.3333333333334,
 149.0 951.3888888888889,
 150.0 930.5555555555555,
 151.0 982.6388888888889,
 152.0 993.0555555555555,
 153.0 986.1111111111111,
 154.0 979.1666666666666,
 155.0 972.2222222222222,
 156.0 996.5277777777778,
 157.0 861.1111111111111,
 158.0 854.1666666666667,
 159.0 833.3333333333334,
 160.0 798.6111111111111,
 161.0 770.8333333333334,
 162.0 743.0555555555555,
 163.0 729.1666666666667,
 164.0 715.2777777777778,
 165.0 701.3888888888889,
 166.0 687.5,
 167.0 680.5555555555555,
 168.0 673.6111111111111,
 169.0 652.7777777777778,
 170.0 645.8333333333334,
 171.0 618.0555555555555,
 172.0 590.2777777777778,
 173.0 583.3333333333334,
 174.0 576.3888888888889,
 175.0 541.6666666666667,
 176.0 534.7222222222222,
 177.0 527.7777777777778,
 178.0 520.8333333333334,
 179.0 513.8888888888889,
 180.0 506.94444444444446,
 181.0 444.44444444444446,
 182.0 443.75,
 183.0 443.05555555555554,
 184.0 442.3611111111111,
 185.0 441.66666666666674,
 186.0 440.9722222222223,
 187.0 440.2777777777778,
 188.0 439.58333333333337,
 189.0 438.8888888888889,
 190.0 438.19444444444446,
 191.0 437.5,
 192.0 436.80555555555554,
 193.0 436.1111111111111,
 194.0 436.1111111111111,
 195.0 435.41666666666674,
 196.0 434.7222222222223,
 197.0 434.0277777777778,
 198.0 433.33333333333337,
 199.0 432.6388888888889,
 200.0 431.94444444444446,
 201.0 431.25,
 202.0 430.55555555555554,
 203.0 429.8611111111111,
 204.0 429.16666666666674,
 205.0 428.4722222222223,
 206.0 427.7777777777778,
 207.0 427.08333333333337,
 208.0 426.3888888888889,
 209.0 425.69444444444446,
 210.0 425.0,
 211.0 424.30555555555554,
 212.0 423.6111111111111,
 213.0 422.91666666666674,
 214.0 422.2222222222223,
 215.0 421.5277777777778,
 216.0 420.83333333333337,
 217.0 420.1388888888889,
 218.0 419.44444444444446,
 219.0 418.75,
 220.0 418.05555555555554,
 221.0 417.3611111111111,
 222.0 416.66666666666674,
 223.0 415.9722222222223,
 224.0 415.2777777777778,
 225.0 414.58333333333337,
 226.0 413.8888888888889,
 227.0 413.19444444444446,
 228.0 412.5,
 229.0 411.80555555555554,
 230.0 411.1111111111111,
 231.0 410.41666666666674,
 232.0 409.7222222222223,
 233.0 402.7777777777778,
 234.0 395.83333333333337,
 235.0 388.8888888888889,
 236.0 381.94444444444446,
 237.0 375.0,
 238.0 368.05555555555554,
 239.0 361.1111111111111,
 240.0 354.16666666666674,
 241.0 347.2222222222223,
 242.0 340.2777777777778,
 243.0 333.33333333333337,
 244.0 326.3888888888889,
 245.0 312.5,
 246.0 305.55555555555554,
 247.0 298.6111111111111,
 248.0 291.66666666666674,
 249.0 284.7222222222223,
 250.0 277.7777777777778,
 251.0 270.83333333333337,
 252.0 263.8888888888889,
 253.0 256.94444444444446,
 254.0 250.0,
 255.0 243.05555555555554,
 256.0 236.1111111111111,
 257.0 222.22222222222229,
 258.0 208.33333333333337,
 259.0 194.44444444444446,
 260.0 180.55555555555554,
 261.0 166.66666666666674,
 262.0 152.77777777777783,
 263.0 138.8888888888889,
 264.0 125.0,
 265.0 111.11111111111109,
 266.0 97.22222222222229,
 267.0 90.27777777777783,
 268.0 83.33333333333337,
 269.0 76.38888888888891,
 270.0 69.44444444444446,
 271.0 62.5,
 272.0 55.55555555555554,
 273.0 48.6111111111112,
 274.0 41.66666666666674,
 275.0 34.722222222222285,
 276.0 27.77777777777783,
 277.0 24.305555555555543,
 278.0 20.83333333333337,
 279.0 17.3611111111112,
 280.0 13.888888888888914,
 281.0 10.416666666666742,
 282.0 6.944444444444457,
 283.0 6.25,
 284.0 5.555555555555543,
 285.0 4.8611111111111995,
 286.0 4.1666666666667425,
 287.0 3.4722222222222854,
 288.0 2.7777777777778283,
 289.0 2.0833333333333712,
 290.0 1.3888888888889142,
 291.0 0.6944444444444571,
 292.0 0.0,
 293.0 0.0,
 294.0 0.0,
 295.0 0.0,
 296.0 0.0,
 297.0 0.0,
 298.0 0.0,
 299.0 0.0,
 300.0 0.0,
 301.0 0.0,
 302.0 0.0,
 303.0 27.77777777777783,
 304.0 62.5,
 305.0 97.22222222222229,
 306.0 131.94444444444446,
 307.0 166.66666666666674,
 308.0 236.1111111111111,
 309.0 305.55555555555554,
 310.0 375.0,
 311.0 444.44444444444446,
 312.0 513.8888888888889,
 313.0 583.3333333333334,
 314.0 652.7777777777778,
 315.0 722.2222222222222,
 316.0 791.6666666666667,
 317.0 861.1111111111111,
 318.0 930.5555555555555,
 319.0 930.5555555555555,
 320.0 930.5555555555555,
 321.0 930.5555555555555,
 322.0 930.5555555555555,
 323.0 993.0555555555555,
 324.0 986.1111111111111,
 325.0 979.1666666666666,
 326.0 972.2222222222222,
 327.0 965.2777777777778,
 328.0 958.3333333333334,
 329.0 951.3888888888889,
 330.0 930.5555555555555,
 331.0 982.6388888888889,
 332.0 993.0555555555555,
 333.0 986.1111111111111,
 334.0 979.1666666666666,
 335.0 972.2222222222222,
 336.0 965.2777777777778,
 337.0 958.3333333333334,
 338.0 951.3888888888889,
 339.0 930.5555555555555,
 340.0 982.6388888888889,
 341.0 993.0555555555555,
 342.0 986.1111111111111,
 343.0 979.1666666666666,
 344.0 972.2222222222222,
 345.0 965.2777777777778,
 346.0 958.3333333333334,
 347.0 951.3888888888889,
 348.0 930.5555555555555,
 349.0 982.6388888888889,
 350.0 993.0555555555555,
 351.0 986.1111111111111,
 352.0 979.1666666666666,
 353.0 972.2222222222222,
 354.0 965.2777777777778,
 355.0 958.3333333333334,
 356.0 951.3888888888889,
 357.0 993.0555555555555,
 358.0 986.1111111111111,
 359.0 979.1666666666666,
 360.0 972.2222222222222,
 361.0 965.2777777777778,
 362.0 958.3333333333334,
 363.0 951.3888888888889,
 364.0 993.0555555555555,
 365.0 986.1111111111111,
 366.0 993.0555555555555,
 367.0 979.1666666666666,
 368.0 972.2222222222222,
 369.0 965.2777777777778,
 370.0 958.3333333333334,
 371.0 951.3888888888889,
 372.0 930.5555555555555,
 373.0 982.6388888888889,
 374.0 993.0555555555555,
 375.0 986.1111111111111,
 376.0 979.1666666666666,
 377.0 972.2222222222222,
 378.0 965.2777777777778,
 379.0 958.3333333333334,
 380.0 951.3888888888889,
 381.0 930.5555555555555,
 382.0 982.6388888888889,
 383.0 993.0555555555555,
 384.0 986.1111111111111,
 385.0 979.1666666666666,
 386.0 972.2222222222222,
 387.0 965.2777777777778,
 388.0 958.3333333333334,
 389.0 951.3888888888889,
 390.0 930.5555555555555,
 391.0 965.2777777777778,
 392.0 958.3333333333334,
 393.0 951.3888888888889,
 394.0 930.5555555555555,
 395.0 982.6388888888889,
 396.0 993.0555555555555,
 397.0 986.1111111111111,
 398.0 979.1666666666666,
 399.0 972.2222222222222,
 400.0 965.2777777777778,
 401.0 958.3333333333334,
 402.0 951.3888888888889,
 403.0 930.5555555555555,
 404.0 982.6388888888889,
 405.0 993.0555555555555,
 406.0 986.1111111111111,
 407.0 979.1666666666666,
 408.0 972.2222222222222,
 409.0 965.2777777777778,
 410.0 958.3333333333334,
 411.0 951.3888888888889,
 412.0 930.5555555555555,
 413.0 982.6388888888889,
 414.0 993.0555555555555,
 415.0 986.1111111111111,
 416.0 979.1666666666666,
 417.0 972.2222222222222,
 418.0 996.5277777777778,
 419.0 982.6388888888889,
 420.0 993.0555555555555,
 421.0 986.1111111111111,
 422.0 979.1666666666666,
 423.0 972.2222222222222,
 424.0 965.2777777777778,
 425.0 958.3333333333334,
 426.0 951.3888888888889,
 427.0 930.5555555555555,
 428.0 982.6388888888889,
 429.0 993.0555555555555,
 430.0 986.1111111111111,
 431.0 979.1666666666666,
 432.0 972.2222222222222,
 433.0 965.2777777777778,
 434.0 958.3333333333334,
 435.0 951.3888888888889,
 436.0 895.8333333333334,
 437.0 982.6388888888889,
 438.0 993.0555555555555,
 439.0 986.1111111111111,
 440.0 979.1666666666666,
 441.0 972.2222222222222,
 442.0 965.2777777777778,
 443.0 958.3333333333334,
 444.0 951.3888888888889,
 445.0 930.5555555555555,
 446.0 982.6388888888889,
 447.0 965.2777777777778,
 448.0 958.3333333333334,
 449.0 951.3888888888889,
 450.0 930.5555555555555,
 451.0 982.6388888888889,
 452.0 993.0555555555555,
 453.0 986.1111111111111,
 454.0 979.1666666666666,
 455.0 972.2222222222222,
 456.0 965.2777777777778,
 457.0 958.3333333333334,
 458.0 951.3888888888889,
 459.0 930.5555555555555,
 460.0 982.6388888888889,
 461.0 993.0555555555555,
 462.0 986.1111111111111,
 463.0 979.1666666666666,
 464.0 972.2222222222222,
 465.0 965.2777777777778,
 466.0 958.3333333333334,
 467.0 951.3888888888889,
 468.0 930.5555555555555,
 469.0 982.6388888888889,
 470.0 993.0555555555555,
 471.0 986.1111111111111,
 472.0 979.1666666666666,
 473.0 972.2222222222222,
 474.0 996.5277777777778,
 475.0 861.1111111111111,
 476.0 854.1666666666667,
 477.0 833.3333333333334,
 478.0 798.6111111111111,
 479.0 770.8333333333334,
 480.0 743.0555555555555,
 481.0 729.1666666666667,
 482.0 715.2777777777778,
 483.0 701.3888888888889,
 484.0 687.5,
 485.0 680.5555555555555,
 486.0 673.6111111111111,
 487.0 652.7777777777778,
 488.0 645.8333333333334,
 489.0 618.0555555555555,
 490.0 590.2777777777778,
 491.0 583.3333333333334,
 492.0 576.3888888888889,
 493.0 541.6666666666667,
 494.0 534.7222222222222,
 495.0 527.7777777777778,
 496.0 520.8333333333334,
 497.0 513.8888888888889,
 498.0 506.94444444444446,
 499.0 444.44444444444446,
 500.0 443.75,
 501.0 443.05555555555554,
 502.0 442.3611111111111,
 503.0 441.66666666666674,
 504.0 440.9722222222223,
 505.0 440.2777777777778,
 506.0 439.58333333333337,
 507.0 438.8888888888889,
 508.0 438.19444444444446,
 509.0 437.5,
 510.0 436.80555555555554,
 511.0 436.1111111111111,
 512.0 436.1111111111111,
 513.0 435.41666666666674,
 514.0 434.7222222222223,
 515.0 434.0277777777778,
 516.0 433.33333333333337,
 517.0 432.6388888888889,
 518.0 431.94444444444446,
 519.0 431.25,
 520.0 430.55555555555554,
 521.0 429.8611111111111,
 522.0 429.16666666666674,
 523.0 428.4722222222223,
 524.0 427.7777777777778,
 525.0 427.08333333333337,
 526.0 426.3888888888889,
 527.0 425.69444444444446,
 528.0 425.0,
 529.0 424.30555555555554,
 530.0 423.6111111111111,
 531.0 422.91666666666674,
 532.0 422.2222222222223,
 533.0 421.5277777777778,
 534.0 420.83333333333337,
 535.0 420.1388888888889,
 536.0 419.44444444444446,
 537.0 418.75,
 538.0 418.05555555555554,
 539.0 417.3611111111111,
 540.0 416.66666666666674,
 541.0 415.9722222222223,
 542.0 415.2777777777778,
 543.0 414.58333333333337,
 544.0 413.8888888888889,
 545.0 413.19444444444446,
 546.0 412.5,
 547.0 411.80555555555554,
 548.0 411.1111111111111,
 549.0 410.41666666666674,
 550.0 409.7222222222223,
 551.0 402.7777777777778,
 552.0 395.83333333333337,
 553.0 388.8888888888889,
 554.0 381.94444444444446,
 555.0 375.0,
 556.0 368.05555555555554,
 557.0 361.1111111111111,
 558.0 354.16666666666674,
 559.0 347.2222222222223,
 560.0 340.2777777777778,
 561.0 333.33333333333337,
 562.0 326.3888888888889,
 563.0 312.5,
 564.0 305.55555555555554,
 565.0 298.6111111111111,
 566.0 291.66666666666674,
 567.0 284.7222222222223,
 568.0 277.7777777777778,
 569.0 270.83333333333337,
 570.0 263.8888888888889,
 571.0 256.94444444444446,
 572.0 250.0,
 573.0 243.05555555555554,
 574.0 236.1111111111111,
 575.0 222.22222222222229,
 576.0 208.33333333333337,
 577.0 194.44444444444446,
 578.0 180.55555555555554,
 579.0 166.66666666666674,
 580.0 152.77777777777783,
 581.0 138.8888888888889,
 582.0 125.0,
 583.0 111.11111111111109,
 584.0 97.22222222222229,
 585.0 90.27777777777783,
 586.0 83.33333333333337,
 587.0 76.38888888888891,
 588.0 69.44444444444446,
 589.0 62.5,
 590.0 55.55555555555554,
 591.0 48.6111111111112,
 592.0 41.66666666666674,
 593.0 34.722222222222285,
 594.0 27.77777777777783,
 595.0 24.305555555555543,
 596.0 20.83333333333337,
 597.0 17.3611111111112,
 598.0 13.888888888888914,
 599.0 10.416666666666742,
 600.0 6.944444444444457,
 601.0 6.25,
 602.0 5.555555555555543,
 603.0 4.8611111111111995,
 604.0 4.1666666666667425,
 605.0 3.4722222222222854,
 606.0 2.7777777777778283,
 607.0 2.0833333333333712,
 608.0 1.3888888888889142,
 609.0 0.6944444444444571,
 610.0 0.0,
 611.0 0.0,
 612.0 0.0,
 613.0 0.0,
 614.0 0.0,
 615.0 0.0,
 616.0 0.0,
 617.0 0.0,
 618.0 0.0,
 619.0 0.0,
 620.0 0.0,
 621.0 27.77777777777783,
 622.0 62.5,
 623.0 97.22222222222229,
 624.0 131.94444444444446,
 625.0 166.66666666666674,
 626.0 236.1111111111111,
 627.0 305.55555555555554,
 628.0 375.0,
 629.0 444.44444444444446,
 630.0 513.8888888888889,
 631.0 583.3333333333334,
 632.0 652.7777777777778,
 633.0 722.2222222222222,
 634.0 791.6666666666667,
 635.0 861.1111111111111,
 636.0 930.5555555555555,
 637.0 930.5555555555555,
 638.0 930.5555555555555,
 639.0 930.5555555555555,
 640.0 930.5555555555555,
 641.0 993.0555555555555,
 642.0 986.1111111111111,
 643.0 979.1666666666666,
 644.0 972.2222222222222,
 645.0 965.2777777777778,
 646.0 958.3333333333334,
 647.0 951.3888888888889,
 648.0 930.5555555555555,
 649.0 982.6388888888889,
 650.0 993.0555555555555,
 651.0 986.1111111111111,
 652.0 979.1666666666666,
 653.0 972.2222222222222,
 654.0 965.2777777777778,
 655.0 958.3333333333334,
 656.0 951.3888888888889,
 657.0 930.5555555555555,
 658.0 982.6388888888889,
 659.0 993.0555555555555,
 660.0 986.1111111111111,
 661.0 979.1666666666666,
 662.0 972.2222222222222,
 663.0 965.2777777777778,
 664.0 958.3333333333334,
 665.0 951.3888888888889,
 666.0 930.5555555555555,
 667.0 982.6388888888889,
 668.0 993.0555555555555,
 669.0 986.1111111111111,
 670.0 979.1666666666666,
 671.0 972.2222222222222,
 672.0 965.2777777777778,
 673.0 958.3333333333334,
 674.0 951.3888888888889,
 675.0 993.0555555555555,
 676.0 986.1111111111111,
 677.0 979.1666666666666,
 678.0 972.2222222222222,
 679.0 965.2777777777778,
 680.0 958.3333333333334,
 681.0 951.3888888888889,
 682.0 930.5555555555555,
 683.0 982.6388888888889,
 684.0 930.5555555555555,
 685.0 982.6388888888889,
 686.0 993.0555555555555,
 687.0 986.1111111111111,
 688.0 993.0555555555555,
 689.0 979.1666666666666,
 690.0 972.2222222222222,
 691.0 965.2777777777778,
 692.0 958.3333333333334,
 693.0 951.3888888888889,
 694.0 930.5555555555555,
 695.0 982.6388888888889,
 696.0 993.0555555555555,
 697.0 986.1111111111111,
 698.0 979.1666666666666,
 699.0 972.2222222222222,
 700.0 965.2777777777778,
 701.0 958.3333333333334,
 702.0 951.3888888888889,
 703.0 930.5555555555555,
 704.0 982.6388888888889,
 705.0 993.0555555555555,
 706.0 986.1111111111111,
 707.0 979.1666666666666,
 708.0 972.2222222222222,
 709.0 965.2777777777778,
 710.0 958.3333333333334,
 711.0 951.3888888888889,
 712.0 930.5555555555555,
 713.0 965.2777777777778,
 714.0 958.3333333333334,
 715.0 951.3888888888889,
 716.0 930.5555555555555,
 717.0 982.6388888888889,
 718.0 993.0555555555555,
 719.0 986.1111111111111,
 720.0 979.1666666666666,
 721.0 972.2222222222222,
 722.0 965.2777777777778,
 723.0 958.3333333333334,
 724.0 951.3888888888889,
 725.0 930.5555555555555,
 726.0 982.6388888888889,
 727.0 993.0555555555555,
 728.0 986.1111111111111,
 729.0 979.1666666666666,
 730.0 972.2222222222222,
 731.0 965.2777777777778,
 732.0 958.3333333333334,
 733.0 951.3888888888889,
 734.0 930.5555555555555,
 735.0 982.6388888888889,
 736.0 993.0555555555555,
 737.0 986.1111111111111,
 738.0 979.1666666666666,
 739.0 972.2222222222222,
 740.0 996.5277777777778,
 741.0 982.6388888888889,
 742.0 993.0555555555555,
 743.0 986.1111111111111,
 744.0 979.1666666666666,
 745.0 972.2222222222222,
 746.0 965.2777777777778,
 747.0 958.3333333333334,
 748.0 951.3888888888889,
 749.0 930.5555555555555,
 750.0 982.6388888888889,
 751.0 993.0555555555555,
 752.0 986.1111111111111,
 753.0 979.1666666666666,
 754.0 972.2222222222222,
 755.0 965.2777777777778,
 756.0 958.3333333333334,
 757.0 951.3888888888889,
 758.0 895.8333333333334,
 759.0 982.6388888888889,
 760.0 993.0555555555555,
 761.0 986.1111111111111,
 762.0 979.1666666666666,
 763.0 972.2222222222222,
 764.0 965.2777777777778,
 765.0 958.3333333333334,
 766.0 951.3888888888889,
 767.0 930.5555555555555,
 768.0 982.6388888888889,
 769.0 965.2777777777778,
 770.0 958.3333333333334,
 771.0 951.3888888888889,
 772.0 930.5555555555555,
 773.0 982.6388888888889,
 774.0 993.0555555555555,
 775.0 986.1111111111111,
 776.0 979.1666666666666,
 777.0 972.2222222222222,
 778.0 965.2777777777778,
 779.0 958.3333333333334,
 780.0 951.3888888888889,
 781.0 930.5555555555555,
 782.0 982.6388888888889,
 783.0 993.0555555555555,
 784.0 986.1111111111111,
 785.0 979.1666666666666,
 786.0 972.2222222222222,
 787.0 965.2777777777778,
 788.0 958.3333333333334,
 789.0 951.3888888888889,
 790.0 930.5555555555555,
 791.0 982.6388888888889,
 792.0 993.0555555555555,
 793.0 986.1111111111111,
 794.0 979.1666666666666,
 795.0 972.2222222222222,
 796.0 996.5277777777778,
 797.0 861.1111111111111,
 798.0 854.1666666666667,
 799.0 833.3333333333334,
 800.0 798.6111111111111,
 801.0 770.8333333333334,
 802.0 743.0555555555555,
 803.0 729.1666666666667,
 804.0 715.2777777777778,
 805.0 701.3888888888889,
 806.0 687.5,
 807.0 680.5555555555555,
 808.0 673.6111111111111,
 809.0 652.7777777777778,
 810.0 645.8333333333334,
 811.0 618.0555555555555,
 812.0 590.2777777777778,
 813.0 583.3333333333334,
 814.0 576.3888888888889,
 815.0 541.6666666666667,
 816.0 534.7222222222222,
 817.0 527.7777777777778,
 818.0 520.8333333333334,
 819.0 513.8888888888889,
 820.0 506.94444444444446,
 821.0 444.44444444444446,
 822.0 443.75,
 823.0 443.05555555555554,
 824.0 442.3611111111111,
 825.0 441.66666666666674,
 826.0 440.9722222222223,
 827.0 440.2777777777778,
 828.0 439.58333333333337,
 829.0 438.8888888888889,
 830.0 438.19444444444446,
 831.0 437.5,
 832.0 436.80555555555554,
 833.0 436.1111111111111,
 834.0 436.1111111111111,
 835.0 435.41666666666674,
 836.0 434.7222222222223,
 837.0 434.0277777777778,
 838.0 433.33333333333337,
 839.0 432.6388888888889,
 840.0 431.94444444444446,
 841.0 431.25,
 842.0 430.55555555555554,
 843.0 429.8611111111111,
 844.0 429.16666666666674,
 845.0 428.4722222222223,
 846.0 427.7777777777778,
 847.0 427.08333333333337,
 848.0 426.3888888888889,
 849.0 425.69444444444446,
 850.0 425.0,
 851.0 424.30555555555554,
 852.0 422.91666666666674,
 853.0 422.2222222222223,
 854.0 421.5277777777778,
 855.0 420.83333333333337,
 856.0 420.1388888888889,
 857.0 419.44444444444446,
 858.0 418.75,
 859.0 418.05555555555554,
 860.0 417.3611111111111,
 861.0 416.66666666666674,
 862.0 415.9722222222223,
 863.0 415.2777777777778,
 864.0 414.58333333333337,
 865.0 413.8888888888889,
 866.0 413.19444444444446,
 867.0 412.5,
 868.0 411.80555555555554,
 869.0 411.1111111111111,
 870.0 410.41666666666674,
 871.0 409.7222222222223,
 872.0 402.7777777777778,
 873.0 395.83333333333337,
 874.0 388.8888888888889,
 875.0 381.94444444444446,
 876.0 375.0,
 877.0 368.05555555555554,
 878.0 361.1111111111111,
 879.0 354.16666666666674,
 880.0 347.2222222222223,
 881.0 340.2777777777778,
 882.0 333.33333333333337,
 883.0 326.3888888888889,
 884.0 312.5,
 885.0 305.55555555555554,
 886.0 298.6111111111111,
 887.0 291.66666666666674,
 888.0 284.7222222222223,
 889.0 277.7777777777778,
 890.0 270.83333333333337,
 891.0 263.8888888888889,
 892.0 256.94444444444446,
 893.0 250.0,
 894.0 243.05555555555554,
 895.0 236.1111111111111,
 896.0 222.22222222222229,
 897.0 208.33333333333337,
 898.0 194.44444444444446,
 899.0 180.55555555555554,
 900.0 166.66666666666674,
 901.0 152.77777777777783,
 902.0 138.8888888888889,
 903.0 125.0,
 904.0 111.11111111111109,
 905.0 97.22222222222229,
 906.0 90.27777777777783,
 907.0 83.33333333333337,
 908.0 76.38888888888891,
 909.0 69.44444444444446,
 910.0 62.5,
 911.0 55.55555555555554,
 912.0 48.6111111111112,
 913.0 41.66666666666674,
 914.0 34.722222222222285,
 915.0 27.77777777777783,
 916.0 24.305555555555543,
 917.0 20.83333333333337,
 918.0 17.3611111111112,
 919.0 13.888888888888914,
 920.0 10.416666666666742,
 921.0 6.944444444444457,
 922.0 6.25,
 923.0 5.555555555555543,
 924.0 4.8611111111111995,
 925.0 4.1666666666667425,
 926.0 3.4722222222222854,
 927.0 2.7777777777778283,
 928.0 2.0833333333333712,
 929.0 1.3888888888889142,
 930.0 0.6944444444444571,
 931.0 0.0,
 932.0 0.0,
 933.0 0.0,
 934.0 0.0,
 935.0 0.0,
 936.0 0.0,
 937.0 0.0,
 938.0 0.0,
 939.0 0.0,
 940.0 0.0,
 941.0 0.0,
 942.0 27.77777777777783,
 943.0 62.5,
 944.0 97.22222222222229,
 945.0 131.94444444444446,
 946.0 166.66666666666674,
 947.0 236.1111111111111,
 948.0 305.55555555555554,
 949.0 375.0,
 950.0 444.44444444444446,
 951.0 513.8888888888889,
 952.0 583.3333333333334,
 953.0 652.7777777777778,
 954.0 722.2222222222222,
 955.0 791.6666666666667,
 956.0 861.1111111111111,
 957.0 930.5555555555555,
 958.0 930.5555555555555,
 959.0 930.5555555555555,
 960.0 930.5555555555555,
 961.0 930.5555555555555,
 962.0 375.0,
 963.0 444.44444444444446,
 964.0 513.8888888888889,
 965.0 583.3333333333334,
 966.0 652.7777777777778,
 967.0 722.2222222222222,
 968.0 791.6666666666667,
 969.0 861.1111111111111,
 970.0 930.5555555555555,
 971.0 930.5555555555555,
 972.0 930.5555555555555,
 973.0 930.5555555555555,
 974.0 930.5555555555555,
 975.0 375.0,
 976.0 444.44444444444446,
 977.0 513.8888888888889,
 978.0 583.3333333333334,
 979.0 652.7777777777778,
 980.0 722.2222222222222,
 981.0 791.6666666666667,
 982.0 861.1111111111111,
 983.0 930.5555555555555,
 984.0 930.5555555555555,
 985.0 930.5555555555555,
 986.0 930.5555555555555,
 987.0 930.5555555555555,
 988.0 375.0,
 989.0 444.44444444444446,
 990.0 513.8888888888889,
 991.0 583.3333333333334,
 992.0 652.7777777777778,
 993.0 722.2222222222222,
 994.0 791.6666666666667,
 995.0 861.1111111111111,
 996.0 930.5555555555555,
 997.0 930.5555555555555,
 998.0 930.5555555555555,
 999.0 930.5555555555555,
 1000.0 930.5555555555555,
" style="stroke:red; stroke-width: 3; fill : none;"/>
</g>
</svg>