<?xml version="1.0"?>
<svg width="1300" height="1300">
<desc>BEI Database Event Tracker</desc>
<linearGradient id="blueGrad">
<stop offset="0" style="stop-color: indigo;"/>
<stop offset="25%" style="stop-color: blue"/> 
<stop offset="100%" style="stop-color: white;"/>
</linearGradient> 
<filter id="drop-shadow"> 
	<feGaussianBlur in="SourceAlpha" stdDeviation="5" result="blur"/> 
	<feOffset id= "depth" in="blur" dx="4" dy="4" result="offsetBlur"/> 
	<feMerge> <feMergeNode in="offsetBlur"/> 
<feMergeNode in="SourceGraphic"/> 
</feMerge>
</filter> 
<g transform="scale(0.5)">
<g filter="url(#drop-shadow)" > 
	<rect cx="10" cy="200" width ="1040" height="50" style="fill: url(#blueGrad);">
        </rect>
<g filter="url(#drop-shadow)" >
<text x="50" y="35" style="font-size:30; fill : white">
Database Event Tracker Graph
</text>
</g>
<!-- Now Draw the main X and Y axis -->
<g style="stroke-width:5; stroke:black">
<!-- X Axis -->
		<path d="M 40 1100 L 1040 1100 Z"/>
<!-- Y Axis -->
		<path d="M 40 100 L 40 1100 Z"/>
</g>
<!-- Now add some dashes in as a guide -->
<g style="fill:none; stroke:#B0B0B0; stroke-width:2; stroke-dasharray:2 4;text-anchor:end; font-size:15">
	<path d="M 42 1000.1085776330076 L 1040 1000.1085776330076 Z"/>
 	<text style="fill:black; stroke:none" x="36" y="1000.1085776330076">276</text>
	<path d="M 42 900.2171552660152 L 1040 900.2171552660152 Z"/>
 	<text style="fill:black; stroke:none" x="36" y="900.2171552660152">552</text>
	<path d="M 42 800.3257328990228 L 1040 800.3257328990228 Z"/>
 	<text style="fill:black; stroke:none" x="36" y="800.3257328990228">828</text>
	<path d="M 42 700.4343105320304 L 1040 700.4343105320304 Z"/>
 	<text style="fill:black; stroke:none" x="36" y="700.4343105320304">1104</text>
	<path d="M 42 600.542888165038 L 1040 600.542888165038 Z"/>
 	<text style="fill:black; stroke:none" x="36" y="600.542888165038">1380</text>
	<path d="M 42 500.6514657980456 L 1040 500.6514657980456 Z"/>
 	<text style="fill:black; stroke:none" x="36" y="500.6514657980456">1656</text>
	<path d="M 42 400.7600434310532 L 1040 400.7600434310532 Z"/>
 	<text style="fill:black; stroke:none" x="36" y="400.7600434310532">1932</text>
	<path d="M 42 300.8686210640608 L 1040 300.8686210640608 Z"/>
 	<text style="fill:black; stroke:none" x="36" y="300.8686210640608">2208</text>
	<path d="M 42 200.9771986970684 L 1040 200.9771986970684 Z"/>
 	<text style="fill:black; stroke:none" x="36" y="200.9771986970684">2484</text>
	<path d="M 42 101.08577633007599 L 1040 101.08577633007599 Z"/>
 	<text style="fill:black; stroke:none" x="36" y="101.08577633007599">2760</text>
 	<text style="fill:black; stroke:none" x="105" y="80">Event Count</text>
	<path d="M 42 100.0 L 1040 100.0 Z"/>
</g>
<g style="fill:none; stroke:#B0B0B0; stroke-width:2; stroke-dasharray:2 4">
 	<path d="M 1040 1095 L 1040 100 Z"/>
 	<text style="fill:black; stroke:none" x="1030" y="1125">250</text>
 	<path d="M 520 1095 L 520 100 Z"/>
 	<text style="fill:black; stroke:none" x="510" y="1125">125</text>
 	<path d="M 260 1095 L 260 100 Z"/>
 	<text style="fill:black; stroke:none" x="250" y="1125">62</text>
 	<path d="M 780.0 1095 L 780.0 100 Z"/>
 	<text style="fill:black; stroke:none" x="770.0" y="1125">186</text>
 	<text style="fill:black; stroke:none" x="520" y="1140">Reading Count</text>
</g>
<polyline points=" 44 922.6565327542526, 48 919.3992037640246, 52 912.8845457835686, 56 907.0937386898299, 60 904.1983351429606, 64 895.5121245023525, 68 891.5309446254072, 72 890.8070937386899, 76 887.1878393051031, 80 886.1020629750271, 84 884.6543612015925, 88 883.5685848715165, 92 880.6731813246471, 96 880.6731813246471, 100 879.9493304379298, 104 876.3300760043431, 108 873.7965979008325, 112 870.1773434672457, 116 870.1773434672457, 120 865.8342381469417, 124 865.8342381469417, 128 865.1103872602243, 132 861.129207383279, 136 854.6145494028231, 140 852.4429967426711, 144 852.0810712993124, 148 847.7379659790083, 152 841.2233079985523, 156 841.2233079985523, 160 834.7086500180963, 164 834.7086500180963, 168 833.984799131379, 172 826.3843648208469, 176 823.4889612739776, 180 819.1458559536736, 184 818.7839305103148, 188 815.8885269634455, 192 813.3550488599349, 196 805.7546145494028, 200 802.1353601158162, 204 800.3257328990228, 208 791.6395222584148, 212 789.4679695982627, 216 787.2964169381107, 220 787.2964169381107, 224 784.4010133912413, 228 784.4010133912413, 232 777.162504524068, 236 776.8005790807094, 240 771.7336228736881, 244 767.390517553384, 248 767.390517553384, 252 765.2189648932319, 256 760.5139341295693, 260 757.2566051393412, 264 751.4657980456027, 268 751.1038726022439, 272 748.2084690553746, 276 746.0369163952225, 280 743.8653637350706, 284 740.6080347448426, 288 738.4364820846906, 292 733.7314513210279, 296 725.4071661237786, 300 725.4071661237786, 304 725.0452406804199, 308 722.5117625769092, 312 715.9971045964531, 316 712.7397756062251, 320 712.0159247195078, 324 708.0347448425624, 328 706.5870430691277, 332 703.6916395222584, 336 703.6916395222584, 340 700.7962359753891, 344 698.624683315237, 348 693.5577271082157, 352 684.1476655808904, 356 680.8903365906624, 360 678.3568584871516, 364 677.6330076004343, 368 677.2710821570756, 372 671.4802750633369, 376 664.965617082881, 380 663.5179153094463, 384 662.794064422729, 388 660.6225117625769, 392 656.2794064422728, 396 650.4885993485342, 400 650.1266739051755, 404 648.6789721317409, 408 648.6789721317409, 412 640.3546869344915, 416 633.4781035106769, 420 633.1161780673181, 424 629.8588490770901, 428 626.9634455302207, 432 623.3441910966342, 436 622.2584147665581, 440 615.3818313427435, 444 613.9341295693087, 448 606.6956207021353, 452 606.6956207021353, 456 606.3336952587767, 460 599.0951863916034, 464 598.0094100615273, 468 597.28555917481, 472 596.9236337314513, 476 595.8378574013753, 480 592.942453854506, 484 592.5805284111473, 488 589.3231994209193, 492 589.3231994209193, 496 588.2374230908433, 500 579.1892870068766, 504 577.7415852334419, 508 577.3796597900832, 512 575.57003257329, 516 569.0553745928339, 520 562.9026420557366, 524 553.1306550850525, 528 553.1306550850525, 532 552.4068041983352, 536 544.8063698878032, 540 544.4444444444445, 544 542.9967426710098, 548 537.5678610206297, 552 533.2247557003258, 556 525.262395946435, 560 522.3669923995657, 564 516.2142598624683, 568 513.318856315599, 572 511.8711545421643, 576 511.8711545421643, 580 505.71842200506694, 584 503.54686934491497, 588 497.7560622511762, 592 491.2414042707203, 596 491.2414042707203, 600 491.2414042707203, 604 490.5175533840029, 608 485.08867173362285, 612 482.9171190734709, 616 478.9359391965255, 620 473.50705754614546, 624 467.3543250090481, 628 465.18277234889615, 632 460.8396670285921, 636 457.9442634817228, 640 457.2204125950054, 644 449.6199782844734, 648 444.91494752081076, 652 437.6764386536373, 656 436.22873688020263, 660 430.437929786464, 664 429.7140788997467, 668 426.45674990951863, 672 424.28519724936666, 676 421.751719145856, 680 417.7705392689106, 684 413.065508505248, 688 413.065508505248, 692 412.3416576185306, 696 406.55085052479194, 700 401.4838943177706, 704 400.7600434310532, 708 394.96923633731456, 712 394.96923633731456, 716 388.4545783568585, 720 381.9399203764025, 724 379.4064422728918, 728 375.42526239594645, 732 375.06333695258775, 736 367.4629026420557, 740 362.3959464350344, 744 362.0340209916757, 748 354.43358668114365, 752 352.6239594643504, 756 347.19507781397033, 760 345.38545059717694, 764 342.85197249366627, 768 338.1469417300036, 772 332.71806007962357, 776 332.71806007962357, 780 325.47955121245025, 784 322.5841476655809, 788 318.2410423452769, 792 317.8791169019182, 796 314.98371335504885, 800 312.0883098081795, 804 308.4690553745928, 808 307.3832790445168, 812 297.2493666304741, 816 291.8204849800941, 820 287.8393051031487, 824 282.0484980094101, 828 278.0673181324647, 832 276.61961635903003, 836 270.8288092652914, 840 266.84762938834604, 844 263.2283749547594, 848 257.7994933043793, 852 257.7994933043793, 856 254.54216431415125, 860 248.02750633369533, 864 247.30365544697793, 868 242.59862468331528, 872 240.4270720231632, 876 231.74086138255518, 880 228.12160694896852, 884 226.31197973217513, 888 223.05465074194717, 892 223.05465074194717, 896 215.45421643141515, 900 215.45421643141515, 904 212.19688744118707, 908 211.4730365544698, 912 206.40608034744844, 916 201.7010495837858, 920 201.7010495837858, 924 198.08179515019913, 928 195.91024249004704, 932 191.92906261310168, 936 188.30980817951502, 940 187.58595729279773, 944 186.86210640608033, 948 185.77633007600434, 952 179.9855229822657, 956 178.89974665218972, 960 172.74701411509227, 964 171.66123778501628, 968 163.69887803112556, 972 157.90807093738692, 976 154.28881650380026, 980 153.56496561708286, 984 145.24068041983355, 988 145.24068041983355, 992 144.15490408975757, 996 137.64024610930153, 1000 137.64024610930153, 1004 128.59211002533482, 1008 123.52515381831347, 1012 121.71552660152008, 1016 121.71552660152008, 1020 117.73434672457472, 1024 112.66739051755337, 1028 105.06695620702135, 1032 103.61925443358666, 1036 102.89540354686937, 1040 100.0," style="stroke:red; stroke-width: 3; fill : none;"/>
 	<text style="fill:black; stroke:none" x="1040" y="115.0">2763</text>
		<path d="M 1150 200 L 1230 200 Z" style="stroke:red; stroke-width: 3; fill : none "/>
		<text style="text-anchor:start; font-size:20" x="1250" y="205">Database Message Count</text>
		<text style="text-anchor:start; font-size:20" x="1250" y="500">Highest Message Count = 2763 </text>
		<text style="text-anchor:start; font-size:20" x="1250" y="550">Average Message Count = 1588 </text>
<!-- Now add a stats table -->
<g style="text-anchor:start; font-size:30">
		<text x="1250" y="270">Statistics</text>
</g>
<g style="text-anchor:start; font-size:20">
		<text x="1250" y="300">Number of readings taken = 250</text>
		<text x="1250" y="350">Delay Time = 1000ms</text>
		<text x="1250" y="400">Start Time = Fri May 21 12:53:28 BST 2004</text>
		<text x="1250" y="450">End Time = Fri May 21 12:57:53 BST 2004</text>
</g>
</g>
</g>
</svg>